Coordinates
version=1
nRows=21
nColumns=22
inDegrees=yes

Units are S.I. units (second, meters, Newtons, ...)
If the header above contains a line with 'inDegrees', this indicates whether rotational values are in degrees (yes) or radians (no).

endheader
time	pelvis_tilt	pelvis_list	pelvis_rotation	pelvis_tx	pelvis_ty	pelvis_tz	hip_flexion_r	hip_adduction_r	hip_rotation_r	knee_angle_r	ankle_angle_r	subtalar_angle_r	hip_flexion_l	hip_adduction_l	hip_rotation_l	knee_angle_l	ankle_angle_l	subtalar_angle_l	lumbar_extension	lumbar_bending	lumbar_rotation
      0.01000000	     -7.19518259	      3.51069387	    -38.44245521	     -1.24031383	      0.88582894	     -0.15405627	      7.09875472	     -1.58630359	     -0.43998985	     -7.18980431	     13.17204978	      1.30479516	      5.76282895	     -5.31128548	     -9.18629343	     -8.45783911	     13.33437332	      4.49783123	      4.16437323	      0.54637000	     10.55618359
      0.02000000	     -7.19689536	      3.51066930	    -38.44249543	     -1.24028401	      0.88581759	     -0.15400469	      7.09616318	     -1.58342799	     -0.44030511	     -7.19062792	     13.17303116	      1.30469981	      5.76062009	     -5.31326434	     -9.18725848	     -8.45773989	     13.33506393	      4.49795968	      4.16928080	      0.53847278	     10.55579980
      0.03000000	     -7.19991316	      3.51101932	    -38.44288888	     -1.24025148	      0.88580282	     -0.15394160	      7.09387312	     -1.57962183	     -0.44086074	     -7.19056496	     13.17470004	      1.30458730	      5.75780669	     -5.31682977	     -9.18931962	     -8.45588254	     13.33636588	      4.49796746	      4.17554576	      0.52902726	     10.55558320
      0.04000000	     -7.21253359	      3.51740150	    -38.44776940	     -1.24019680	      0.88576625	     -0.15385938	      7.09591798	     -1.57464804	     -0.44367795	     -7.17745711	     13.18876535	      1.30299090	      5.75284749	     -5.31997200	     -9.20634344	     -8.43073092	     13.34613740	      4.49807360	      4.19892854	      0.52254737	     10.56163003
      0.05000000	     -7.21583463	      3.51706112	    -38.44799188	     -1.24016177	      0.88575062	     -0.15378972	      7.09397198	     -1.57002035	     -0.44236939	     -7.17932373	     13.18940049	      1.30290806	      5.74943292	     -5.32457291	     -9.20700914	     -8.43069929	     13.34652104	      4.49799261	      4.20491300	      0.51201181	     10.56220149
      0.06000000	     -7.22026858	      3.51714337	    -38.44760253	     -1.24013305	      0.88573431	     -0.15371763	      7.09288778	     -1.56465219	     -0.44117217	     -7.17978749	     13.19101755	      1.30278822	      5.74659036	     -5.33011635	     -9.20898345	     -8.42760784	     13.34775039	      4.49786108	      4.21114065	      0.50050294	     10.56375313
      0.07000000	     -7.23858791	      3.52475264	    -38.45563575	     -1.24008746	      0.88569209	     -0.15362658	      7.10197820	     -1.55587989	     -0.43358464	     -7.16861849	     13.20656166	      1.30069552	      5.74257619	     -5.33641286	     -9.22362165	     -8.39482592	     13.35771275	      4.49824694	      4.23950376	      0.49523231	     10.58289896
      0.08000000	     -7.24193344	      3.52436965	    -38.45465135	     -1.24006170	      0.88567869	     -0.15356015	      7.10114496	     -1.55147353	     -0.43122666	     -7.17096559	     13.20666358	      1.30060865	      5.74012117	     -5.34146183	     -9.22392438	     -8.39495900	     13.35770279	      4.49830811	      4.24365975	      0.48358275	     10.58406594
      0.09000000	     -7.24616719	      3.52450819	    -38.45204525	     -1.24004130	      0.88566457	     -0.15349638	      7.10095620	     -1.54658975	     -0.42888403	     -7.17235463	     13.20753598	      1.30053115	      5.73872825	     -5.34633202	     -9.22496624	     -8.39246744	     13.35838565	      4.49846916	      4.24757068	      0.47149176	     10.58678307
      0.10000000	     -7.25086744	      3.52520453	    -38.44888873	     -1.24002092	      0.88564949	     -0.15343162	      7.10125218	     -1.54191935	     -0.42653456	     -7.17322914	     13.20906950	      1.30045867	      5.73749143	     -5.35115980	     -9.22616620	     -8.38846595	     13.35958646	      4.49876394	      4.25266247	      0.45939383	     10.59101034
      0.11000000	     -7.25604426	      3.52661794	    -38.44548417	     -1.24000022	      0.88563298	     -0.15336460	      7.10212685	     -1.53724951	     -0.42406877	     -7.17383252	     13.21126598	      1.30040928	      5.73649815	     -5.35574235	     -9.22738853	     -8.38308823	     13.36133223	      4.49920349	      4.25903940	      0.44709474	     10.59703647
      0.12000000	     -7.27705410	      3.54571652	    -38.45652262	     -1.23996896	      0.88557737	     -0.15328187	      7.12626855	     -1.53638083	     -0.40960806	     -7.16905293	     13.23008551	      1.29922538	      5.74134963	     -5.35354839	     -9.23050234	     -8.34756144	     13.37292336	      4.50415859	      4.29637689	      0.43529717	     10.64240884
      0.13000000	     -7.27967247	      3.54610008	    -38.45341543	     -1.23994844	      0.88556510	     -0.15320853	      7.12606223	     -1.53218645	     -0.40615971	     -7.17357695	     13.22996444	      1.29933407	      5.74004698	     -5.35865514	     -9.23167306	     -8.34817123	     13.37251834	      4.50438690	      4.30032110	      0.42263997	     10.64333903
      0.14000000	     -7.28279240	      3.54704692	    -38.44918010	     -1.23992916	      0.88555200	     -0.15313982	      7.12653148	     -1.52787013	     -0.40294821	     -7.17754637	     13.23077067	      1.29946207	      5.74004384	     -5.36291030	     -9.23336305	     -8.34708473	     13.37321042	      4.50469797	      4.30409570	      0.41055078	     10.64740018
      0.15000000	     -7.30689824	      3.58364831	    -38.47888527	     -1.23996670	      0.88547557	     -0.15304720	      7.19628302	     -1.53508039	     -0.35226143	     -7.22362705	     13.26196917	      1.29872835	      5.77384162	     -5.35474542	     -9.27136788	     -8.34089171	     13.38513018	      4.51646205	      4.35048724	      0.38408325	     10.70663835
      0.16000000	     -7.30940478	      3.58340775	    -38.47374382	     -1.23993781	      0.88546149	     -0.15297061	      7.19355199	     -1.53035705	     -0.35223236	     -7.22613559	     13.26241771	      1.29882072	      5.77281360	     -5.35985527	     -9.27204187	     -8.34226369	     13.38548708	      4.51658554	      4.35445499	      0.37257469	     10.71004620
      0.17000000	     -7.31546193	      3.58617997	    -38.47415482	     -1.23991697	      0.88543829	     -0.15289035	      7.19761151	     -1.52513065	     -0.35812963	     -7.22900656	     13.27406719	      1.29813113	      5.77877793	     -5.36580307	     -9.27454448	     -8.34940631	     13.39474500	      4.51965328	      4.36352063	      0.36043666	     10.74307012
      0.18000000	     -7.31804916	      3.58608832	    -38.47040692	     -1.23989491	      0.88542352	     -0.15281409	      7.19635709	     -1.51988796	     -0.35651920	     -7.23250818	     13.27498523	      1.29821924	      5.77762030	     -5.37103117	     -9.27600203	     -8.34994913	     13.39607667	      4.51994528	      4.36579566	      0.34856137	     10.74568336
      0.19000000	     -7.32179451	      3.58655843	    -38.47748594	     -1.23989717	      0.88540115	     -0.15273696	      7.20549901	     -1.51311628	     -0.34951081	     -7.24857479	     13.29398064	      1.29736344	      5.78166941	     -5.37873935	     -9.28440315	     -8.36070839	     13.41082976	      4.52579831	      4.36672485	      0.33691688	     10.78957172
      0.20000000	     -7.32358952	      3.58645604	    -38.47738682	     -1.23987199	      0.88538549	     -0.15265371	      7.20410877	     -1.50813629	     -0.34729732	     -7.25306569	     13.29513397	      1.29743832	      5.77863701	     -5.38382017	     -9.28631827	     -8.36314825	     13.41174799	      4.52645953	      4.37055432	      0.32591319	     10.79086027
      0.21000000	     -7.32247740	      3.58378223	    -38.49863005	     -1.23988995	      0.88536820	     -0.15256302	      7.21808852	     -1.49989993	     -0.32448999	     -7.28687002	     13.32254548	      1.29667612	      5.77634694	     -5.39326305	     -9.31202027	     -8.38153298	     13.42585528	      4.53944415	      4.36488499	      0.31662783	     10.83993559
